<svg width="375" height="2234" fill="none" xmlns="http://www.w3.org/2000/svg"><g stroke="#D1D1D1" stroke-opacity=".5" stroke-width=".75" stroke-miterlimit="10"><path d="M0 13.012h375M0 27.328h375M0 41.645h375M0 55.961h375M0 70.242h375M0 84.559h375M0 98.875h375M0 113.192h375M0 127.473h375M0 141.789h375M0 156.106h375M0 170.422h375M0 184.703h375M0 199.02h375M0 213.336h375M0 227.653h375M0 241.934h375M0 256.25h375M0 270.567h375M0 284.883h375M0 299.164h375M0 313.481h375M0 327.797h375M0 342.114h375M0 356.395h375M0 370.711h375M0 385.028h375M0 399.309h375M0 413.625h375M0 427.942h375M0 442.258h375M0 456.539h375M0 470.856h375M0 485.172h375M0 499.489h375M0 513.77h375M0 528.086h375M0 542.403h375M0 556.719h375M0 571h375M0 585.317h375M0 599.633h375M0 613.95h375M0 628.231h375M0 642.547h375M0 656.864h375M0 671.18h375M0 685.462h375M0 699.778h375M0 714.094h375M0 728.411h375M0 742.692h375M0 757.008h375M0 771.325h375M0 785.606h375M0 799.922h375M0 814.239h375M0 828.555h375M0 842.837h375M0 857.153h375M0 871.469h375M0 885.786h375M0 900.067h375M0 914.384h375M0 928.7h375M0 943.016h375M0 957.298h375M0 971.614h375M0 985.931h375M0 1000.25h375M0 1014.53h375M0 1028.84h375M0 1043.16h375M0 1057.48h375M0 1071.76h375M0 1086.08h375M0 1100.39h375M0 1114.67h375M0 1128.99h375M0 1143.31h375M0 1157.62h375M0 1171.9h375M0 1186.22h375M0 1200.54h375M0 1214.85h375M0 1229.13h375M0 1243.45h375M0 1257.77h375M0 1272.08h375M0 1286.36h375M0 1300.68h375M0 1315h375M0 1329.31h375M0 1343.59h375M0 1357.91h375M0 1372.23h375M0 1386.54h375M0 1400.83h375M0 1415.14h375M0 1429.46h375M0 1443.77h375M0 1458.06h375M0 1472.37h375M0 1486.69h375M0 1500.97h375M0 1515.29h375M0 1529.6h375M0 1543.92h375M0 1558.2h375M0 1572.52h375M0 1586.83h375M0 1601.15h375M0 1615.43h375M0 1629.75h375M0 1644.06h375M0 1658.38h375M0 1672.66h375M0 1686.98h375M0 1701.29h375M0 1715.61h375M0 1729.89h375M0 1744.21h375M0 1758.52h375M0 1772.84h375M0 1787.12h375M0 1801.44h375M0 1815.76h375M0 1830.07h375M0 1844.35h375M0 1858.67h375M0 1872.99h375M0 1887.27h375M0 1901.58h375M0 1915.9h375M0 1930.22h375M0 1944.5h375M0 1958.81h375M0 1973.13h375M0 1987.45h375M0 2001.73h375M0 2016.04h375M0 2030.36h375M0 2044.68h375M0 2058.96h375M0 2073.27h375M0 2087.59h375M0 2101.91h375M0 2116.19h375M0 2130.51h375M0 2144.82h375M0 2159.14h375M0 2173.42h375M0 2187.74h375M0 2202.05h375M0 2216.33h375M0 2001.73h375M0 2016.04h375M15.522 0v2234M29.28 0v2234M43.039 0v2234M56.797 0v2234M70.555 0v2234M84.313 0v2234M98.072 0v2234M111.83 0v2234M125.588 0v2234M139.346 0v2234M153.104 0v2234M166.863 0v2234M180.621 0v2234M194.379 0v2234M208.137 0v2234M221.896 0v2234M235.654 0v2234M249.412 0v2234M263.17 0v2234M276.929 0v2234M290.687 0v2234M304.445 0v2234M318.203 0v2234M331.961 0v2234M345.72 0v2234M359.478 0v2234"/></g></svg>