<svg width="1920" height="2241" viewBox="0 0 1920 2241" fill="none" xmlns="http://www.w3.org/2000/svg">
<g id="&#234;&#178;&#176;&#234;&#179;&#188;&#236;&#167;&#128; &#234;&#178;&#169;&#236;&#158;&#144;">
<rect width="1920" height="2241" fill="white"/>
<g id="&#234;&#178;&#169;&#236;&#158;&#144;">
<path id="Vector" d="M1217.9 0V2241" stroke="#D1D1D1" stroke-width="0.75" stroke-miterlimit="10"/>
<path id="Vector_2" d="M1208.7 0V2241" stroke="#D1D1D1" stroke-width="0.75" stroke-miterlimit="10"/>
<path id="Vector_3" d="M1199.6 0V2241" stroke="#D1D1D1" stroke-width="0.75" stroke-miterlimit="10"/>
<path id="Vector_4" d="M1190.4 0V2241" stroke="#D1D1D1" stroke-width="0.75" stroke-miterlimit="10"/>
<path id="Vector_5" d="M1181.3 0V2241" stroke="#D1D1D1" stroke-width="0.75" stroke-miterlimit="10"/>
<path id="Vector_6" d="M1172.2 0V2241" stroke="#D1D1D1" stroke-width="0.75" stroke-miterlimit="10"/>
<path id="Vector_7" d="M1163 0V2241" stroke="#D1D1D1" stroke-width="0.75" stroke-miterlimit="10"/>
<path id="Vector_8" d="M1153.9 0V2241" stroke="#D1D1D1" stroke-width="0.75" stroke-miterlimit="10"/>
<path id="Vector_9" d="M1144.7 0V2241" stroke="#D1D1D1" stroke-width="0.75" stroke-miterlimit="10"/>
<path id="Vector_10" d="M1135.6 0V2241" stroke="#D1D1D1" stroke-width="0.75" stroke-miterlimit="10"/>
<path id="Vector_11" d="M1126.5 0V2241" stroke="#D1D1D1" stroke-width="0.75" stroke-miterlimit="10"/>
<path id="Vector_12" d="M1117.3 0V2241" stroke="#D1D1D1" stroke-width="0.75" stroke-miterlimit="10"/>
<path id="Vector_13" d="M1108.2 0V2241" stroke="#D1D1D1" stroke-width="0.75" stroke-miterlimit="10"/>
<path id="Vector_14" d="M1099 0V2241" stroke="#D1D1D1" stroke-width="0.75" stroke-miterlimit="10"/>
<path id="Vector_15" d="M1089.9 0V2241" stroke="#D1D1D1" stroke-width="0.75" stroke-miterlimit="10"/>
<path id="Vector_16" d="M1080.7 0V2241" stroke="#D1D1D1" stroke-width="0.75" stroke-miterlimit="10"/>
<path id="Vector_17" d="M1071.6 0V2241" stroke="#D1D1D1" stroke-width="0.75" stroke-miterlimit="10"/>
<path id="Vector_18" d="M1062.5 0V2241" stroke="#D1D1D1" stroke-width="0.75" stroke-miterlimit="10"/>
<path id="Vector_19" d="M1053.3 0V2241" stroke="#D1D1D1" stroke-width="0.75" stroke-miterlimit="10"/>
<path id="Vector_20" d="M1044.2 0V2241" stroke="#D1D1D1" stroke-width="0.75" stroke-miterlimit="10"/>
<path id="Vector_21" d="M1035 0V2241" stroke="#D1D1D1" stroke-width="0.75" stroke-miterlimit="10"/>
<path id="Vector_22" d="M1025.9 0V2241" stroke="#D1D1D1" stroke-width="0.75" stroke-miterlimit="10"/>
<path id="Vector_23" d="M1418.9 0V2241" stroke="#D1D1D1" stroke-width="0.75" stroke-miterlimit="10"/>
<path id="Vector_24" d="M1409.7 0V2241" stroke="#D1D1D1" stroke-width="0.75" stroke-miterlimit="10"/>
<path id="Vector_25" d="M1400.6 0V2241" stroke="#D1D1D1" stroke-width="0.75" stroke-miterlimit="10"/>
<path id="Vector_26" d="M1391.4 0V2241" stroke="#D1D1D1" stroke-width="0.75" stroke-miterlimit="10"/>
<path id="Vector_27" d="M1382.3 0V2241" stroke="#D1D1D1" stroke-width="0.75" stroke-miterlimit="10"/>
<path id="Vector_28" d="M1373.2 0V2241" stroke="#D1D1D1" stroke-width="0.75" stroke-miterlimit="10"/>
<path id="Vector_29" d="M1364 0V2241" stroke="#D1D1D1" stroke-width="0.75" stroke-miterlimit="10"/>
<path id="Vector_30" d="M1354.9 0V2241" stroke="#D1D1D1" stroke-width="0.75" stroke-miterlimit="10"/>
<path id="Vector_31" d="M1345.7 0V2241" stroke="#D1D1D1" stroke-width="0.75" stroke-miterlimit="10"/>
<path id="Vector_32" d="M1336.6 0V2241" stroke="#D1D1D1" stroke-width="0.75" stroke-miterlimit="10"/>
<path id="Vector_33" d="M1327.5 0V2241" stroke="#D1D1D1" stroke-width="0.75" stroke-miterlimit="10"/>
<path id="Vector_34" d="M1318.3 0V2241" stroke="#D1D1D1" stroke-width="0.75" stroke-miterlimit="10"/>
<path id="Vector_35" d="M1309.2 0V2241" stroke="#D1D1D1" stroke-width="0.75" stroke-miterlimit="10"/>
<path id="Vector_36" d="M1300 0V2241" stroke="#D1D1D1" stroke-width="0.75" stroke-miterlimit="10"/>
<path id="Vector_37" d="M1290.9 0V2241" stroke="#D1D1D1" stroke-width="0.75" stroke-miterlimit="10"/>
<path id="Vector_38" d="M1281.7 0V2241" stroke="#D1D1D1" stroke-width="0.75" stroke-miterlimit="10"/>
<path id="Vector_39" d="M1272.6 0V2241" stroke="#D1D1D1" stroke-width="0.75" stroke-miterlimit="10"/>
<path id="Vector_40" d="M1263.5 0V2241" stroke="#D1D1D1" stroke-width="0.75" stroke-miterlimit="10"/>
<path id="Vector_41" d="M1254.3 0V2241" stroke="#D1D1D1" stroke-width="0.75" stroke-miterlimit="10"/>
<path id="Vector_42" d="M1245.2 0V2241" stroke="#D1D1D1" stroke-width="0.75" stroke-miterlimit="10"/>
<path id="Vector_43" d="M1236 0V2241" stroke="#D1D1D1" stroke-width="0.75" stroke-miterlimit="10"/>
<path id="Vector_44" d="M1226.9 0V2241" stroke="#D1D1D1" stroke-width="0.75" stroke-miterlimit="10"/>
<path id="Vector_45" d="M1619.9 0V2241" stroke="#D1D1D1" stroke-width="0.75" stroke-miterlimit="10"/>
<path id="Vector_46" d="M1610.7 0V2241" stroke="#D1D1D1" stroke-width="0.75" stroke-miterlimit="10"/>
<path id="Vector_47" d="M1601.6 0V2241" stroke="#D1D1D1" stroke-width="0.75" stroke-miterlimit="10"/>
<path id="Vector_48" d="M1592.4 0V2241" stroke="#D1D1D1" stroke-width="0.75" stroke-miterlimit="10"/>
<path id="Vector_49" d="M1583.3 0V2241" stroke="#D1D1D1" stroke-width="0.75" stroke-miterlimit="10"/>
<path id="Vector_50" d="M1574.2 0V2241" stroke="#D1D1D1" stroke-width="0.75" stroke-miterlimit="10"/>
<path id="Vector_51" d="M1565 0V2241" stroke="#D1D1D1" stroke-width="0.75" stroke-miterlimit="10"/>
<path id="Vector_52" d="M1555.9 0V2241" stroke="#D1D1D1" stroke-width="0.75" stroke-miterlimit="10"/>
<path id="Vector_53" d="M1546.7 0V2241" stroke="#D1D1D1" stroke-width="0.75" stroke-miterlimit="10"/>
<path id="Vector_54" d="M1537.6 0V2241" stroke="#D1D1D1" stroke-width="0.75" stroke-miterlimit="10"/>
<path id="Vector_55" d="M1528.5 0V2241" stroke="#D1D1D1" stroke-width="0.75" stroke-miterlimit="10"/>
<path id="Vector_56" d="M1519.3 0V2241" stroke="#D1D1D1" stroke-width="0.75" stroke-miterlimit="10"/>
<path id="Vector_57" d="M1510.2 0V2241" stroke="#D1D1D1" stroke-width="0.75" stroke-miterlimit="10"/>
<path id="Vector_58" d="M1501 0V2241" stroke="#D1D1D1" stroke-width="0.75" stroke-miterlimit="10"/>
<path id="Vector_59" d="M1491.9 0V2241" stroke="#D1D1D1" stroke-width="0.75" stroke-miterlimit="10"/>
<path id="Vector_60" d="M1482.7 0V2241" stroke="#D1D1D1" stroke-width="0.75" stroke-miterlimit="10"/>
<path id="Vector_61" d="M1473.6 0V2241" stroke="#D1D1D1" stroke-width="0.75" stroke-miterlimit="10"/>
<path id="Vector_62" d="M1464.5 0V2241" stroke="#D1D1D1" stroke-width="0.75" stroke-miterlimit="10"/>
<path id="Vector_63" d="M1455.3 0V2241" stroke="#D1D1D1" stroke-width="0.75" stroke-miterlimit="10"/>
<path id="Vector_64" d="M1446.2 0V2241" stroke="#D1D1D1" stroke-width="0.75" stroke-miterlimit="10"/>
<path id="Vector_65" d="M1437 0V2241" stroke="#D1D1D1" stroke-width="0.75" stroke-miterlimit="10"/>
<path id="Vector_66" d="M1427.9 0V2241" stroke="#D1D1D1" stroke-width="0.75" stroke-miterlimit="10"/>
<path id="Vector_67" d="M1820.9 0V2241" stroke="#D1D1D1" stroke-width="0.75" stroke-miterlimit="10"/>
<path id="Vector_68" d="M1811.7 0V2241" stroke="#D1D1D1" stroke-width="0.75" stroke-miterlimit="10"/>
<path id="Vector_69" d="M1802.6 0V2241" stroke="#D1D1D1" stroke-width="0.75" stroke-miterlimit="10"/>
<path id="Vector_70" d="M1793.4 0V2241" stroke="#D1D1D1" stroke-width="0.75" stroke-miterlimit="10"/>
<path id="Vector_71" d="M1784.3 0V2241" stroke="#D1D1D1" stroke-width="0.75" stroke-miterlimit="10"/>
<path id="Vector_72" d="M1775.2 0V2241" stroke="#D1D1D1" stroke-width="0.75" stroke-miterlimit="10"/>
<path id="Vector_73" d="M1766 0V2241" stroke="#D1D1D1" stroke-width="0.75" stroke-miterlimit="10"/>
<path id="Vector_74" d="M1756.9 0V2241" stroke="#D1D1D1" stroke-width="0.75" stroke-miterlimit="10"/>
<path id="Vector_75" d="M1747.7 0V2241" stroke="#D1D1D1" stroke-width="0.75" stroke-miterlimit="10"/>
<path id="Vector_76" d="M1738.6 0V2241" stroke="#D1D1D1" stroke-width="0.75" stroke-miterlimit="10"/>
<path id="Vector_77" d="M1729.5 0V2241" stroke="#D1D1D1" stroke-width="0.75" stroke-miterlimit="10"/>
<path id="Vector_78" d="M1720.3 0V2241" stroke="#D1D1D1" stroke-width="0.75" stroke-miterlimit="10"/>
<path id="Vector_79" d="M1711.2 0V2241" stroke="#D1D1D1" stroke-width="0.75" stroke-miterlimit="10"/>
<path id="Vector_80" d="M1702 0V2241" stroke="#D1D1D1" stroke-width="0.75" stroke-miterlimit="10"/>
<path id="Vector_81" d="M1692.9 0V2241" stroke="#D1D1D1" stroke-width="0.75" stroke-miterlimit="10"/>
<path id="Vector_82" d="M1683.7 0V2241" stroke="#D1D1D1" stroke-width="0.75" stroke-miterlimit="10"/>
<path id="Vector_83" d="M1674.6 0V2241" stroke="#D1D1D1" stroke-width="0.75" stroke-miterlimit="10"/>
<path id="Vector_84" d="M1665.5 0V2241" stroke="#D1D1D1" stroke-width="0.75" stroke-miterlimit="10"/>
<path id="Vector_85" d="M1656.3 0V2241" stroke="#D1D1D1" stroke-width="0.75" stroke-miterlimit="10"/>
<path id="Vector_86" d="M1647.2 0V2241" stroke="#D1D1D1" stroke-width="0.75" stroke-miterlimit="10"/>
<path id="Vector_87" d="M1638 0V2241" stroke="#D1D1D1" stroke-width="0.75" stroke-miterlimit="10"/>
<path id="Vector_88" d="M1628.9 0V2241" stroke="#D1D1D1" stroke-width="0.75" stroke-miterlimit="10"/>
<path id="Vector_89" d="M1912.2 0V2241" stroke="#D1D1D1" stroke-width="0.75" stroke-miterlimit="10"/>
<path id="Vector_90" d="M1903 0V2241" stroke="#D1D1D1" stroke-width="0.75" stroke-miterlimit="10"/>
<path id="Vector_91" d="M1893.9 0V2241" stroke="#D1D1D1" stroke-width="0.75" stroke-miterlimit="10"/>
<path id="Vector_92" d="M1884.7 0V2241" stroke="#D1D1D1" stroke-width="0.75" stroke-miterlimit="10"/>
<path id="Vector_93" d="M1875.6 0V2241" stroke="#D1D1D1" stroke-width="0.75" stroke-miterlimit="10"/>
<path id="Vector_94" d="M1866.5 0V2241" stroke="#D1D1D1" stroke-width="0.75" stroke-miterlimit="10"/>
<path id="Vector_95" d="M1857.3 0V2241" stroke="#D1D1D1" stroke-width="0.75" stroke-miterlimit="10"/>
<path id="Vector_96" d="M1848.2 0V2241" stroke="#D1D1D1" stroke-width="0.75" stroke-miterlimit="10"/>
<path id="Vector_97" d="M1839 0V2241" stroke="#D1D1D1" stroke-width="0.75" stroke-miterlimit="10"/>
<path id="Vector_98" d="M1829.9 0V2241" stroke="#D1D1D1" stroke-width="0.75" stroke-miterlimit="10"/>
<path id="Vector_99" d="M1016.8 0V2241" stroke="#D1D1D1" stroke-width="0.75" stroke-miterlimit="10"/>
<path id="Vector_100" d="M1007.6 0V2241" stroke="#D1D1D1" stroke-width="0.75" stroke-miterlimit="10"/>
<path id="Vector_101" d="M998.5 0V2241" stroke="#D1D1D1" stroke-width="0.75" stroke-miterlimit="10"/>
<path id="Vector_102" d="M989.3 0V2241" stroke="#D1D1D1" stroke-width="0.75" stroke-miterlimit="10"/>
<path id="Vector_103" d="M980.2 0V2241" stroke="#D1D1D1" stroke-width="0.75" stroke-miterlimit="10"/>
<path id="Vector_104" d="M971.1 0V2241" stroke="#D1D1D1" stroke-width="0.75" stroke-miterlimit="10"/>
<path id="Vector_105" d="M961.9 0V2241" stroke="#D1D1D1" stroke-width="0.75" stroke-miterlimit="10"/>
<path id="Vector_106" d="M952.8 0V2241" stroke="#D1D1D1" stroke-width="0.75" stroke-miterlimit="10"/>
<path id="Vector_107" d="M943.6 0V2241" stroke="#D1D1D1" stroke-width="0.75" stroke-miterlimit="10"/>
<path id="Vector_108" d="M934.5 0V2241" stroke="#D1D1D1" stroke-width="0.75" stroke-miterlimit="10"/>
<path id="Vector_109" d="M925.4 0V2241" stroke="#D1D1D1" stroke-width="0.75" stroke-miterlimit="10"/>
<path id="Vector_110" d="M916.2 0V2241" stroke="#D1D1D1" stroke-width="0.75" stroke-miterlimit="10"/>
<path id="Vector_111" d="M907.1 0V2241" stroke="#D1D1D1" stroke-width="0.75" stroke-miterlimit="10"/>
<path id="Vector_112" d="M897.9 0V2241" stroke="#D1D1D1" stroke-width="0.75" stroke-miterlimit="10"/>
<path id="Vector_113" d="M888.8 0V2241" stroke="#D1D1D1" stroke-width="0.75" stroke-miterlimit="10"/>
<path id="Vector_114" d="M879.7 0V2241" stroke="#D1D1D1" stroke-width="0.75" stroke-miterlimit="10"/>
<path id="Vector_115" d="M870.5 0V2241" stroke="#D1D1D1" stroke-width="0.75" stroke-miterlimit="10"/>
<path id="Vector_116" d="M861.4 0V2241" stroke="#D1D1D1" stroke-width="0.75" stroke-miterlimit="10"/>
<path id="Vector_117" d="M852.2 0V2241" stroke="#D1D1D1" stroke-width="0.75" stroke-miterlimit="10"/>
<path id="Vector_118" d="M843.1 0V2241" stroke="#D1D1D1" stroke-width="0.75" stroke-miterlimit="10"/>
<path id="Vector_119" d="M833.9 0V2241" stroke="#D1D1D1" stroke-width="0.75" stroke-miterlimit="10"/>
<path id="Vector_120" d="M824.8 0V2241" stroke="#D1D1D1" stroke-width="0.75" stroke-miterlimit="10"/>
<path id="Vector_121" d="M815.7 0V2241" stroke="#D1D1D1" stroke-width="0.75" stroke-miterlimit="10"/>
<path id="Vector_122" d="M806.5 0V2241" stroke="#D1D1D1" stroke-width="0.75" stroke-miterlimit="10"/>
<path id="Vector_123" d="M797.4 0V2241" stroke="#D1D1D1" stroke-width="0.75" stroke-miterlimit="10"/>
<path id="Vector_124" d="M788.2 0V2241" stroke="#D1D1D1" stroke-width="0.75" stroke-miterlimit="10"/>
<path id="Vector_125" d="M779.1 0V2241" stroke="#D1D1D1" stroke-width="0.75" stroke-miterlimit="10"/>
<path id="Vector_126" d="M770 0V2241" stroke="#D1D1D1" stroke-width="0.75" stroke-miterlimit="10"/>
<path id="Vector_127" d="M760.8 0V2241" stroke="#D1D1D1" stroke-width="0.75" stroke-miterlimit="10"/>
<path id="Vector_128" d="M751.7 0V2241" stroke="#D1D1D1" stroke-width="0.75" stroke-miterlimit="10"/>
<path id="Vector_129" d="M742.5 0V2241" stroke="#D1D1D1" stroke-width="0.75" stroke-miterlimit="10"/>
<path id="Vector_130" d="M733.4 0V2241" stroke="#D1D1D1" stroke-width="0.75" stroke-miterlimit="10"/>
<path id="Vector_131" d="M724.3 0V2241" stroke="#D1D1D1" stroke-width="0.75" stroke-miterlimit="10"/>
<path id="Vector_132" d="M715.1 0V2241" stroke="#D1D1D1" stroke-width="0.75" stroke-miterlimit="10"/>
<path id="Vector_133" d="M706 0V2241" stroke="#D1D1D1" stroke-width="0.75" stroke-miterlimit="10"/>
<path id="Vector_134" d="M696.8 0V2241" stroke="#D1D1D1" stroke-width="0.75" stroke-miterlimit="10"/>
<path id="Vector_135" d="M687.7 0V2241" stroke="#D1D1D1" stroke-width="0.75" stroke-miterlimit="10"/>
<path id="Vector_136" d="M678.6 0V2241" stroke="#D1D1D1" stroke-width="0.75" stroke-miterlimit="10"/>
<path id="Vector_137" d="M669.4 0V2241" stroke="#D1D1D1" stroke-width="0.75" stroke-miterlimit="10"/>
<path id="Vector_138" d="M660.3 0V2241" stroke="#D1D1D1" stroke-width="0.75" stroke-miterlimit="10"/>
<path id="Vector_139" d="M651.1 0V2241" stroke="#D1D1D1" stroke-width="0.75" stroke-miterlimit="10"/>
<path id="Vector_140" d="M642 0V2241" stroke="#D1D1D1" stroke-width="0.75" stroke-miterlimit="10"/>
<path id="Vector_141" d="M632.8 0V2241" stroke="#D1D1D1" stroke-width="0.75" stroke-miterlimit="10"/>
<path id="Vector_142" d="M623.7 0V2241" stroke="#D1D1D1" stroke-width="0.75" stroke-miterlimit="10"/>
<path id="Vector_143" d="M614.6 0V2241" stroke="#D1D1D1" stroke-width="0.75" stroke-miterlimit="10"/>
<path id="Vector_144" d="M605.4 0V2241" stroke="#D1D1D1" stroke-width="0.75" stroke-miterlimit="10"/>
<path id="Vector_145" d="M596.3 0V2241" stroke="#D1D1D1" stroke-width="0.75" stroke-miterlimit="10"/>
<path id="Vector_146" d="M587.1 0V2241" stroke="#D1D1D1" stroke-width="0.75" stroke-miterlimit="10"/>
<path id="Vector_147" d="M578 0V2241" stroke="#D1D1D1" stroke-width="0.75" stroke-miterlimit="10"/>
<path id="Vector_148" d="M568.9 0V2241" stroke="#D1D1D1" stroke-width="0.75" stroke-miterlimit="10"/>
<path id="Vector_149" d="M559.7 0V2241" stroke="#D1D1D1" stroke-width="0.75" stroke-miterlimit="10"/>
<path id="Vector_150" d="M550.6 0V2241" stroke="#D1D1D1" stroke-width="0.75" stroke-miterlimit="10"/>
<path id="Vector_151" d="M541.4 0V2241" stroke="#D1D1D1" stroke-width="0.75" stroke-miterlimit="10"/>
<path id="Vector_152" d="M532.3 0V2241" stroke="#D1D1D1" stroke-width="0.75" stroke-miterlimit="10"/>
<path id="Vector_153" d="M523.2 0V2241" stroke="#D1D1D1" stroke-width="0.75" stroke-miterlimit="10"/>
<path id="Vector_154" d="M514 0V2241" stroke="#D1D1D1" stroke-width="0.75" stroke-miterlimit="10"/>
<path id="Vector_155" d="M504.9 0V2241" stroke="#D1D1D1" stroke-width="0.75" stroke-miterlimit="10"/>
<path id="Vector_156" d="M495.7 0V2241" stroke="#D1D1D1" stroke-width="0.75" stroke-miterlimit="10"/>
<path id="Vector_157" d="M486.6 0V2241" stroke="#D1D1D1" stroke-width="0.75" stroke-miterlimit="10"/>
<path id="Vector_158" d="M477.5 0V2241" stroke="#D1D1D1" stroke-width="0.75" stroke-miterlimit="10"/>
<path id="Vector_159" d="M468.3 0V2241" stroke="#D1D1D1" stroke-width="0.75" stroke-miterlimit="10"/>
<path id="Vector_160" d="M459.2 0V2241" stroke="#D1D1D1" stroke-width="0.75" stroke-miterlimit="10"/>
<path id="Vector_161" d="M450 0V2241" stroke="#D1D1D1" stroke-width="0.75" stroke-miterlimit="10"/>
<path id="Vector_162" d="M440.9 0V2241" stroke="#D1D1D1" stroke-width="0.75" stroke-miterlimit="10"/>
<path id="Vector_163" d="M431.8 0V2241" stroke="#D1D1D1" stroke-width="0.75" stroke-miterlimit="10"/>
<path id="Vector_164" d="M422.6 0V2241" stroke="#D1D1D1" stroke-width="0.75" stroke-miterlimit="10"/>
<path id="Vector_165" d="M413.5 0V2241" stroke="#D1D1D1" stroke-width="0.75" stroke-miterlimit="10"/>
<path id="Vector_166" d="M404.3 0V2241" stroke="#D1D1D1" stroke-width="0.75" stroke-miterlimit="10"/>
<path id="Vector_167" d="M395.2 0V2241" stroke="#D1D1D1" stroke-width="0.75" stroke-miterlimit="10"/>
<path id="Vector_168" d="M386 0V2241" stroke="#D1D1D1" stroke-width="0.75" stroke-miterlimit="10"/>
<path id="Vector_169" d="M376.9 0V2241" stroke="#D1D1D1" stroke-width="0.75" stroke-miterlimit="10"/>
<path id="Vector_170" d="M367.8 0V2241" stroke="#D1D1D1" stroke-width="0.75" stroke-miterlimit="10"/>
<path id="Vector_171" d="M358.6 0V2241" stroke="#D1D1D1" stroke-width="0.75" stroke-miterlimit="10"/>
<path id="Vector_172" d="M349.5 0V2241" stroke="#D1D1D1" stroke-width="0.75" stroke-miterlimit="10"/>
<path id="Vector_173" d="M340.3 0V2241" stroke="#D1D1D1" stroke-width="0.75" stroke-miterlimit="10"/>
<path id="Vector_174" d="M331.2 0V2241" stroke="#D1D1D1" stroke-width="0.75" stroke-miterlimit="10"/>
<path id="Vector_175" d="M322.1 0V2241" stroke="#D1D1D1" stroke-width="0.75" stroke-miterlimit="10"/>
<path id="Vector_176" d="M312.9 0V2241" stroke="#D1D1D1" stroke-width="0.75" stroke-miterlimit="10"/>
<path id="Vector_177" d="M303.8 0V2241" stroke="#D1D1D1" stroke-width="0.75" stroke-miterlimit="10"/>
<path id="Vector_178" d="M294.6 0V2241" stroke="#D1D1D1" stroke-width="0.75" stroke-miterlimit="10"/>
<path id="Vector_179" d="M285.5 0V2241" stroke="#D1D1D1" stroke-width="0.75" stroke-miterlimit="10"/>
<path id="Vector_180" d="M276.4 0V2241" stroke="#D1D1D1" stroke-width="0.75" stroke-miterlimit="10"/>
<path id="Vector_181" d="M267.2 0V2241" stroke="#D1D1D1" stroke-width="0.75" stroke-miterlimit="10"/>
<path id="Vector_182" d="M258.1 0V2241" stroke="#D1D1D1" stroke-width="0.75" stroke-miterlimit="10"/>
<path id="Vector_183" d="M248.9 0V2241" stroke="#D1D1D1" stroke-width="0.75" stroke-miterlimit="10"/>
<path id="Vector_184" d="M239.8 0V2241" stroke="#D1D1D1" stroke-width="0.75" stroke-miterlimit="10"/>
<path id="Vector_185" d="M230.7 0V2241" stroke="#D1D1D1" stroke-width="0.75" stroke-miterlimit="10"/>
<path id="Vector_186" d="M221.5 0V2241" stroke="#D1D1D1" stroke-width="0.75" stroke-miterlimit="10"/>
<path id="Vector_187" d="M212.4 0V2241" stroke="#D1D1D1" stroke-width="0.75" stroke-miterlimit="10"/>
<path id="Vector_188" d="M203.2 0V2241" stroke="#D1D1D1" stroke-width="0.75" stroke-miterlimit="10"/>
<path id="Vector_189" d="M194.1 0V2241" stroke="#D1D1D1" stroke-width="0.75" stroke-miterlimit="10"/>
<path id="Vector_190" d="M185 0V2241" stroke="#D1D1D1" stroke-width="0.75" stroke-miterlimit="10"/>
<path id="Vector_191" d="M175.8 0V2241" stroke="#D1D1D1" stroke-width="0.75" stroke-miterlimit="10"/>
<path id="Vector_192" d="M166.7 0V2241" stroke="#D1D1D1" stroke-width="0.75" stroke-miterlimit="10"/>
<path id="Vector_193" d="M157.5 0V2241" stroke="#D1D1D1" stroke-width="0.75" stroke-miterlimit="10"/>
<path id="Vector_194" d="M148.4 0V2241" stroke="#D1D1D1" stroke-width="0.75" stroke-miterlimit="10"/>
<path id="Vector_195" d="M139.2 0V2241" stroke="#D1D1D1" stroke-width="0.75" stroke-miterlimit="10"/>
<path id="Vector_196" d="M130.1 0V2241" stroke="#D1D1D1" stroke-width="0.75" stroke-miterlimit="10"/>
<path id="Vector_197" d="M121 0V2241" stroke="#D1D1D1" stroke-width="0.75" stroke-miterlimit="10"/>
<path id="Vector_198" d="M111.8 0V2241" stroke="#D1D1D1" stroke-width="0.75" stroke-miterlimit="10"/>
<path id="Vector_199" d="M102.7 0V2241" stroke="#D1D1D1" stroke-width="0.75" stroke-miterlimit="10"/>
<path id="Vector_200" d="M93.5 0V2241" stroke="#D1D1D1" stroke-width="0.75" stroke-miterlimit="10"/>
<path id="Vector_201" d="M84.3999 0V2241" stroke="#D1D1D1" stroke-width="0.75" stroke-miterlimit="10"/>
<path id="Vector_202" d="M75.3 0V2241" stroke="#D1D1D1" stroke-width="0.75" stroke-miterlimit="10"/>
<path id="Vector_203" d="M66.1001 0V2241" stroke="#D1D1D1" stroke-width="0.75" stroke-miterlimit="10"/>
<path id="Vector_204" d="M57 0V2241" stroke="#D1D1D1" stroke-width="0.75" stroke-miterlimit="10"/>
<path id="Vector_205" d="M47.8 0V2241" stroke="#D1D1D1" stroke-width="0.75" stroke-miterlimit="10"/>
<path id="Vector_206" d="M38.7 0V2241" stroke="#D1D1D1" stroke-width="0.75" stroke-miterlimit="10"/>
<path id="Vector_207" d="M29.6001 0V2241" stroke="#D1D1D1" stroke-width="0.75" stroke-miterlimit="10"/>
<path id="Vector_208" d="M20.3999 0V2241" stroke="#D1D1D1" stroke-width="0.75" stroke-miterlimit="10"/>
<path id="Vector_209" d="M11.3 0V2241" stroke="#D1D1D1" stroke-width="0.75" stroke-miterlimit="10"/>
<path id="Vector_210" d="M148.4 0V2241" stroke="#D1D1D1" stroke-width="0.75" stroke-miterlimit="10"/>
<path id="Vector_211" d="M139.2 0V2241" stroke="#D1D1D1" stroke-width="0.75" stroke-miterlimit="10"/>
<path id="Vector_212" d="M1920 9.8999H0" stroke="#D1D1D1" stroke-width="0.75" stroke-miterlimit="10"/>
<path id="Vector_213" d="M1920 18.7H0" stroke="#D1D1D1" stroke-width="0.75" stroke-miterlimit="10"/>
<path id="Vector_214" d="M1920 27.5H0" stroke="#D1D1D1" stroke-width="0.75" stroke-miterlimit="10"/>
<path id="Vector_215" d="M1920 36.3H0" stroke="#D1D1D1" stroke-width="0.75" stroke-miterlimit="10"/>
<path id="Vector_216" d="M1920 45.1001H0" stroke="#D1D1D1" stroke-width="0.75" stroke-miterlimit="10"/>
<path id="Vector_217" d="M1920 53.8H0" stroke="#D1D1D1" stroke-width="0.75" stroke-miterlimit="10"/>
<path id="Vector_218" d="M1920 62.6001H0" stroke="#D1D1D1" stroke-width="0.75" stroke-miterlimit="10"/>
<path id="Vector_219" d="M1920 71.3999H0" stroke="#D1D1D1" stroke-width="0.75" stroke-miterlimit="10"/>
<path id="Vector_220" d="M1920 80.2H0" stroke="#D1D1D1" stroke-width="0.75" stroke-miterlimit="10"/>
<path id="Vector_221" d="M1920 89H0" stroke="#D1D1D1" stroke-width="0.75" stroke-miterlimit="10"/>
<path id="Vector_222" d="M1920 97.8H0" stroke="#D1D1D1" stroke-width="0.75" stroke-miterlimit="10"/>
<path id="Vector_223" d="M1920 106.6H0" stroke="#D1D1D1" stroke-width="0.75" stroke-miterlimit="10"/>
<path id="Vector_224" d="M1920 115.3H0" stroke="#D1D1D1" stroke-width="0.75" stroke-miterlimit="10"/>
<path id="Vector_225" d="M1920 124.1H0" stroke="#D1D1D1" stroke-width="0.75" stroke-miterlimit="10"/>
<path id="Vector_226" d="M1920 132.9H0" stroke="#D1D1D1" stroke-width="0.75" stroke-miterlimit="10"/>
<path id="Vector_227" d="M1920 141.7H0" stroke="#D1D1D1" stroke-width="0.75" stroke-miterlimit="10"/>
<path id="Vector_228" d="M1920 150.5H0" stroke="#D1D1D1" stroke-width="0.75" stroke-miterlimit="10"/>
<path id="Vector_229" d="M1920 159.3H0" stroke="#D1D1D1" stroke-width="0.75" stroke-miterlimit="10"/>
<path id="Vector_230" d="M1920 168.1H0" stroke="#D1D1D1" stroke-width="0.75" stroke-miterlimit="10"/>
<path id="Vector_231" d="M1920 176.9H0" stroke="#D1D1D1" stroke-width="0.75" stroke-miterlimit="10"/>
<path id="Vector_232" d="M1920 185.6H0" stroke="#D1D1D1" stroke-width="0.75" stroke-miterlimit="10"/>
<path id="Vector_233" d="M1920 194.4H0" stroke="#D1D1D1" stroke-width="0.75" stroke-miterlimit="10"/>
<path id="Vector_234" d="M1920 203.2H0" stroke="#D1D1D1" stroke-width="0.75" stroke-miterlimit="10"/>
<path id="Vector_235" d="M1920 212H0" stroke="#D1D1D1" stroke-width="0.75" stroke-miterlimit="10"/>
<path id="Vector_236" d="M1920 220.8H0" stroke="#D1D1D1" stroke-width="0.75" stroke-miterlimit="10"/>
<path id="Vector_237" d="M1920 229.6H0" stroke="#D1D1D1" stroke-width="0.75" stroke-miterlimit="10"/>
<path id="Vector_238" d="M1920 239H0" stroke="#D1D1D1" stroke-width="0.75" stroke-miterlimit="10"/>
<path id="Vector_239" d="M1920 248.5H0" stroke="#D1D1D1" stroke-width="0.75" stroke-miterlimit="10"/>
<path id="Vector_240" d="M1920 257.9H0" stroke="#D1D1D1" stroke-width="0.75" stroke-miterlimit="10"/>
<path id="Vector_241" d="M1920 267.4H0" stroke="#D1D1D1" stroke-width="0.75" stroke-miterlimit="10"/>
<path id="Vector_242" d="M1920 276.8H0" stroke="#D1D1D1" stroke-width="0.75" stroke-miterlimit="10"/>
<path id="Vector_243" d="M1920 286.2H0" stroke="#D1D1D1" stroke-width="0.75" stroke-miterlimit="10"/>
<path id="Vector_244" d="M1920 295.7H0" stroke="#D1D1D1" stroke-width="0.75" stroke-miterlimit="10"/>
<path id="Vector_245" d="M1920 305.1H0" stroke="#D1D1D1" stroke-width="0.75" stroke-miterlimit="10"/>
<path id="Vector_246" d="M1920 314.6H0" stroke="#D1D1D1" stroke-width="0.75" stroke-miterlimit="10"/>
<path id="Vector_247" d="M1920 324H0" stroke="#D1D1D1" stroke-width="0.75" stroke-miterlimit="10"/>
<path id="Vector_248" d="M1920 333.5H0" stroke="#D1D1D1" stroke-width="0.75" stroke-miterlimit="10"/>
<path id="Vector_249" d="M1920 342.9H0" stroke="#D1D1D1" stroke-width="0.75" stroke-miterlimit="10"/>
<path id="Vector_250" d="M1920 352.4H0" stroke="#D1D1D1" stroke-width="0.75" stroke-miterlimit="10"/>
<path id="Vector_251" d="M1920 361.8H0" stroke="#D1D1D1" stroke-width="0.75" stroke-miterlimit="10"/>
<path id="Vector_252" d="M1920 371.3H0" stroke="#D1D1D1" stroke-width="0.75" stroke-miterlimit="10"/>
<path id="Vector_253" d="M1920 380.7H0" stroke="#D1D1D1" stroke-width="0.75" stroke-miterlimit="10"/>
<path id="Vector_254" d="M1920 390.1H0" stroke="#D1D1D1" stroke-width="0.75" stroke-miterlimit="10"/>
<path id="Vector_255" d="M1920 399.6H0" stroke="#D1D1D1" stroke-width="0.75" stroke-miterlimit="10"/>
<path id="Vector_256" d="M1920 409H0" stroke="#D1D1D1" stroke-width="0.75" stroke-miterlimit="10"/>
<path id="Vector_257" d="M1920 418.5H0" stroke="#D1D1D1" stroke-width="0.75" stroke-miterlimit="10"/>
<path id="Vector_258" d="M1920 427.9H0" stroke="#D1D1D1" stroke-width="0.75" stroke-miterlimit="10"/>
<path id="Vector_259" d="M1920 437.4H0" stroke="#D1D1D1" stroke-width="0.75" stroke-miterlimit="10"/>
<path id="Vector_260" d="M1920 446.8H0" stroke="#D1D1D1" stroke-width="0.75" stroke-miterlimit="10"/>
<path id="Vector_261" d="M1920 456.3H0" stroke="#D1D1D1" stroke-width="0.75" stroke-miterlimit="10"/>
<path id="Vector_262" d="M1920 465.7H0" stroke="#D1D1D1" stroke-width="0.75" stroke-miterlimit="10"/>
<path id="Vector_263" d="M1920 475.2H0" stroke="#D1D1D1" stroke-width="0.75" stroke-miterlimit="10"/>
<path id="Vector_264" d="M1920 484.6H0" stroke="#D1D1D1" stroke-width="0.75" stroke-miterlimit="10"/>
<path id="Vector_265" d="M1920 494.1H0" stroke="#D1D1D1" stroke-width="0.75" stroke-miterlimit="10"/>
<path id="Vector_266" d="M1920 503.5H0" stroke="#D1D1D1" stroke-width="0.75" stroke-miterlimit="10"/>
<path id="Vector_267" d="M1920 512.9H0" stroke="#D1D1D1" stroke-width="0.75" stroke-miterlimit="10"/>
<path id="Vector_268" d="M1920 522.4H0" stroke="#D1D1D1" stroke-width="0.75" stroke-miterlimit="10"/>
<path id="Vector_269" d="M1920 531.8H0" stroke="#D1D1D1" stroke-width="0.75" stroke-miterlimit="10"/>
<path id="Vector_270" d="M1920 541.3H0" stroke="#D1D1D1" stroke-width="0.75" stroke-miterlimit="10"/>
<path id="Vector_271" d="M1920 550.7H0" stroke="#D1D1D1" stroke-width="0.75" stroke-miterlimit="10"/>
<path id="Vector_272" d="M1920 560.2H0" stroke="#D1D1D1" stroke-width="0.75" stroke-miterlimit="10"/>
<path id="Vector_273" d="M1920 569.6H0" stroke="#D1D1D1" stroke-width="0.75" stroke-miterlimit="10"/>
<path id="Vector_274" d="M1920 579.1H0" stroke="#D1D1D1" stroke-width="0.75" stroke-miterlimit="10"/>
<path id="Vector_275" d="M1920 588.5H0" stroke="#D1D1D1" stroke-width="0.75" stroke-miterlimit="10"/>
<path id="Vector_276" d="M1920 598H0" stroke="#D1D1D1" stroke-width="0.75" stroke-miterlimit="10"/>
<path id="Vector_277" d="M1920 607.4H0" stroke="#D1D1D1" stroke-width="0.75" stroke-miterlimit="10"/>
<path id="Vector_278" d="M1920 616.8H0" stroke="#D1D1D1" stroke-width="0.75" stroke-miterlimit="10"/>
<path id="Vector_279" d="M1920 626.3H0" stroke="#D1D1D1" stroke-width="0.75" stroke-miterlimit="10"/>
<path id="Vector_280" d="M1920 635.7H0" stroke="#D1D1D1" stroke-width="0.75" stroke-miterlimit="10"/>
<path id="Vector_281" d="M1920 645.2H0" stroke="#D1D1D1" stroke-width="0.75" stroke-miterlimit="10"/>
<path id="Vector_282" d="M1920 654.6H0" stroke="#D1D1D1" stroke-width="0.75" stroke-miterlimit="10"/>
<path id="Vector_283" d="M1920 664.1H0" stroke="#D1D1D1" stroke-width="0.75" stroke-miterlimit="10"/>
<path id="Vector_284" d="M1920 672.9H0" stroke="#D1D1D1" stroke-width="0.75" stroke-miterlimit="10"/>
<path id="Vector_285" d="M1920 681.8H0" stroke="#D1D1D1" stroke-width="0.75" stroke-miterlimit="10"/>
<path id="Vector_286" d="M1920 691.9H0" stroke="#D1D1D1" stroke-width="0.75" stroke-miterlimit="10"/>
<path id="Vector_287" d="M1920 700.7H0" stroke="#D1D1D1" stroke-width="0.75" stroke-miterlimit="10"/>
<path id="Vector_288" d="M1920 709.5H0" stroke="#D1D1D1" stroke-width="0.75" stroke-miterlimit="10"/>
<path id="Vector_289" d="M1920 718.3H0" stroke="#D1D1D1" stroke-width="0.75" stroke-miterlimit="10"/>
<path id="Vector_290" d="M1920 727.1H0" stroke="#D1D1D1" stroke-width="0.75" stroke-miterlimit="10"/>
<path id="Vector_291" d="M1920 735.8H0" stroke="#D1D1D1" stroke-width="0.75" stroke-miterlimit="10"/>
<path id="Vector_292" d="M1920 744.6H0" stroke="#D1D1D1" stroke-width="0.75" stroke-miterlimit="10"/>
<path id="Vector_293" d="M1920 753.4H0" stroke="#D1D1D1" stroke-width="0.75" stroke-miterlimit="10"/>
<path id="Vector_294" d="M1920 762.2H0" stroke="#D1D1D1" stroke-width="0.75" stroke-miterlimit="10"/>
<path id="Vector_295" d="M1920 771H0" stroke="#D1D1D1" stroke-width="0.75" stroke-miterlimit="10"/>
<path id="Vector_296" d="M1920 779.8H0" stroke="#D1D1D1" stroke-width="0.75" stroke-miterlimit="10"/>
<path id="Vector_297" d="M1920 788.6H0" stroke="#D1D1D1" stroke-width="0.75" stroke-miterlimit="10"/>
<path id="Vector_298" d="M1920 797.3H0" stroke="#D1D1D1" stroke-width="0.75" stroke-miterlimit="10"/>
<path id="Vector_299" d="M1920 806.1H0" stroke="#D1D1D1" stroke-width="0.75" stroke-miterlimit="10"/>
<path id="Vector_300" d="M1920 814.9H0" stroke="#D1D1D1" stroke-width="0.75" stroke-miterlimit="10"/>
<path id="Vector_301" d="M1920 823.7H0" stroke="#D1D1D1" stroke-width="0.75" stroke-miterlimit="10"/>
<path id="Vector_302" d="M1920 832.5H0" stroke="#D1D1D1" stroke-width="0.75" stroke-miterlimit="10"/>
<path id="Vector_303" d="M1920 841.3H0" stroke="#D1D1D1" stroke-width="0.75" stroke-miterlimit="10"/>
<path id="Vector_304" d="M1920 850.1H0" stroke="#D1D1D1" stroke-width="0.75" stroke-miterlimit="10"/>
<path id="Vector_305" d="M1920 858.9H0" stroke="#D1D1D1" stroke-width="0.75" stroke-miterlimit="10"/>
<path id="Vector_306" d="M1920 867.6H0" stroke="#D1D1D1" stroke-width="0.75" stroke-miterlimit="10"/>
<path id="Vector_307" d="M1920 876.4H0" stroke="#D1D1D1" stroke-width="0.75" stroke-miterlimit="10"/>
<path id="Vector_308" d="M1920 885.2H0" stroke="#D1D1D1" stroke-width="0.75" stroke-miterlimit="10"/>
<path id="Vector_309" d="M1920 894H0" stroke="#D1D1D1" stroke-width="0.75" stroke-miterlimit="10"/>
<path id="Vector_310" d="M1920 902.8H0" stroke="#D1D1D1" stroke-width="0.75" stroke-miterlimit="10"/>
<path id="Vector_311" d="M1920 911.6H0" stroke="#D1D1D1" stroke-width="0.75" stroke-miterlimit="10"/>
<path id="Vector_312" d="M1920 921H0" stroke="#D1D1D1" stroke-width="0.75" stroke-miterlimit="10"/>
<path id="Vector_313" d="M1920 930.5H0" stroke="#D1D1D1" stroke-width="0.75" stroke-miterlimit="10"/>
<path id="Vector_314" d="M1920 939.9H0" stroke="#D1D1D1" stroke-width="0.75" stroke-miterlimit="10"/>
<path id="Vector_315" d="M1920 949.4H0" stroke="#D1D1D1" stroke-width="0.75" stroke-miterlimit="10"/>
<path id="Vector_316" d="M1920 958.8H0" stroke="#D1D1D1" stroke-width="0.75" stroke-miterlimit="10"/>
<path id="Vector_317" d="M1920 968.2H0" stroke="#D1D1D1" stroke-width="0.75" stroke-miterlimit="10"/>
<path id="Vector_318" d="M1920 977.7H0" stroke="#D1D1D1" stroke-width="0.75" stroke-miterlimit="10"/>
<path id="Vector_319" d="M1920 987.1H0" stroke="#D1D1D1" stroke-width="0.75" stroke-miterlimit="10"/>
<path id="Vector_320" d="M1920 996.6H0" stroke="#D1D1D1" stroke-width="0.75" stroke-miterlimit="10"/>
<path id="Vector_321" d="M1920 1006H0" stroke="#D1D1D1" stroke-width="0.75" stroke-miterlimit="10"/>
<path id="Vector_322" d="M1920 1015.5H0" stroke="#D1D1D1" stroke-width="0.75" stroke-miterlimit="10"/>
<path id="Vector_323" d="M1920 1024.9H0" stroke="#D1D1D1" stroke-width="0.75" stroke-miterlimit="10"/>
<path id="Vector_324" d="M1920 1034.4H0" stroke="#D1D1D1" stroke-width="0.75" stroke-miterlimit="10"/>
<path id="Vector_325" d="M1920 1043.8H0" stroke="#D1D1D1" stroke-width="0.75" stroke-miterlimit="10"/>
<path id="Vector_326" d="M1920 1053.3H0" stroke="#D1D1D1" stroke-width="0.75" stroke-miterlimit="10"/>
<path id="Vector_327" d="M1920 1062.7H0" stroke="#D1D1D1" stroke-width="0.75" stroke-miterlimit="10"/>
<path id="Vector_328" d="M1920 1072.1H0" stroke="#D1D1D1" stroke-width="0.75" stroke-miterlimit="10"/>
<path id="Vector_329" d="M1920 1081.6H0" stroke="#D1D1D1" stroke-width="0.75" stroke-miterlimit="10"/>
<path id="Vector_330" d="M1920 1091H0" stroke="#D1D1D1" stroke-width="0.75" stroke-miterlimit="10"/>
<path id="Vector_331" d="M1920 1100.5H0" stroke="#D1D1D1" stroke-width="0.75" stroke-miterlimit="10"/>
<path id="Vector_332" d="M1920 1109.9H0" stroke="#D1D1D1" stroke-width="0.75" stroke-miterlimit="10"/>
<path id="Vector_333" d="M1920 1119.4H0" stroke="#D1D1D1" stroke-width="0.75" stroke-miterlimit="10"/>
<path id="Vector_334" d="M1920 1128.8H0" stroke="#D1D1D1" stroke-width="0.75" stroke-miterlimit="10"/>
<path id="Vector_335" d="M1920 1138.3H0" stroke="#D1D1D1" stroke-width="0.75" stroke-miterlimit="10"/>
<path id="Vector_336" d="M1920 1147.7H0" stroke="#D1D1D1" stroke-width="0.75" stroke-miterlimit="10"/>
<path id="Vector_337" d="M1920 1157.2H0" stroke="#D1D1D1" stroke-width="0.75" stroke-miterlimit="10"/>
<path id="Vector_338" d="M1920 1166.6H0" stroke="#D1D1D1" stroke-width="0.75" stroke-miterlimit="10"/>
<path id="Vector_339" d="M1920 1176.1H0" stroke="#D1D1D1" stroke-width="0.75" stroke-miterlimit="10"/>
<path id="Vector_340" d="M1920 1185.5H0" stroke="#D1D1D1" stroke-width="0.75" stroke-miterlimit="10"/>
<path id="Vector_341" d="M1920 1194.9H0" stroke="#D1D1D1" stroke-width="0.75" stroke-miterlimit="10"/>
<path id="Vector_342" d="M1920 1204.4H0" stroke="#D1D1D1" stroke-width="0.75" stroke-miterlimit="10"/>
<path id="Vector_343" d="M1920 1213.8H0" stroke="#D1D1D1" stroke-width="0.75" stroke-miterlimit="10"/>
<path id="Vector_344" d="M1920 1223.3H0" stroke="#D1D1D1" stroke-width="0.75" stroke-miterlimit="10"/>
<path id="Vector_345" d="M1920 1232.7H0" stroke="#D1D1D1" stroke-width="0.75" stroke-miterlimit="10"/>
<path id="Vector_346" d="M1920 1242.2H0" stroke="#D1D1D1" stroke-width="0.75" stroke-miterlimit="10"/>
<path id="Vector_347" d="M1920 1251.6H0" stroke="#D1D1D1" stroke-width="0.75" stroke-miterlimit="10"/>
<path id="Vector_348" d="M1920 1261.1H0" stroke="#D1D1D1" stroke-width="0.75" stroke-miterlimit="10"/>
<path id="Vector_349" d="M1920 1270.5H0" stroke="#D1D1D1" stroke-width="0.75" stroke-miterlimit="10"/>
<path id="Vector_350" d="M1920 1280H0" stroke="#D1D1D1" stroke-width="0.75" stroke-miterlimit="10"/>
<path id="Vector_351" d="M1920 1289.4H0" stroke="#D1D1D1" stroke-width="0.75" stroke-miterlimit="10"/>
<path id="Vector_352" d="M1920 1298.8H0" stroke="#D1D1D1" stroke-width="0.75" stroke-miterlimit="10"/>
<path id="Vector_353" d="M1920 1308.3H0" stroke="#D1D1D1" stroke-width="0.75" stroke-miterlimit="10"/>
<path id="Vector_354" d="M1920 1317.7H0" stroke="#D1D1D1" stroke-width="0.75" stroke-miterlimit="10"/>
<path id="Vector_355" d="M1920 1327.2H0" stroke="#D1D1D1" stroke-width="0.75" stroke-miterlimit="10"/>
<path id="Vector_356" d="M1920 1336.6H0" stroke="#D1D1D1" stroke-width="0.75" stroke-miterlimit="10"/>
<path id="Vector_357" d="M1920 1346.1H0" stroke="#D1D1D1" stroke-width="0.75" stroke-miterlimit="10"/>
<path id="Vector_358" d="M1920 1354.9H0" stroke="#D1D1D1" stroke-width="0.75" stroke-miterlimit="10"/>
<path id="Vector_359" d="M1920 1363.8H0" stroke="#D1D1D1" stroke-width="0.75" stroke-miterlimit="10"/>
<path id="Vector_360" d="M1920 1371.9H0" stroke="#D1D1D1" stroke-width="0.75" stroke-miterlimit="10"/>
<path id="Vector_361" d="M1920 1380.7H0" stroke="#D1D1D1" stroke-width="0.75" stroke-miterlimit="10"/>
<path id="Vector_362" d="M1920 1389.5H0" stroke="#D1D1D1" stroke-width="0.75" stroke-miterlimit="10"/>
<path id="Vector_363" d="M1920 1398.3H0" stroke="#D1D1D1" stroke-width="0.75" stroke-miterlimit="10"/>
<path id="Vector_364" d="M1920 1407.1H0" stroke="#D1D1D1" stroke-width="0.75" stroke-miterlimit="10"/>
<path id="Vector_365" d="M1920 1415.8H0" stroke="#D1D1D1" stroke-width="0.75" stroke-miterlimit="10"/>
<path id="Vector_366" d="M1920 1424.6H0" stroke="#D1D1D1" stroke-width="0.75" stroke-miterlimit="10"/>
<path id="Vector_367" d="M1920 1433.4H0" stroke="#D1D1D1" stroke-width="0.75" stroke-miterlimit="10"/>
<path id="Vector_368" d="M1920 1442.2H0" stroke="#D1D1D1" stroke-width="0.75" stroke-miterlimit="10"/>
<path id="Vector_369" d="M1920 1451H0" stroke="#D1D1D1" stroke-width="0.75" stroke-miterlimit="10"/>
<path id="Vector_370" d="M1920 1459.8H0" stroke="#D1D1D1" stroke-width="0.75" stroke-miterlimit="10"/>
<path id="Vector_371" d="M1920 1468.6H0" stroke="#D1D1D1" stroke-width="0.75" stroke-miterlimit="10"/>
<path id="Vector_372" d="M1920 1477.3H0" stroke="#D1D1D1" stroke-width="0.75" stroke-miterlimit="10"/>
<path id="Vector_373" d="M1920 1486.1H0" stroke="#D1D1D1" stroke-width="0.75" stroke-miterlimit="10"/>
<path id="Vector_374" d="M1920 1494.9H0" stroke="#D1D1D1" stroke-width="0.75" stroke-miterlimit="10"/>
<path id="Vector_375" d="M1920 1503.7H0" stroke="#D1D1D1" stroke-width="0.75" stroke-miterlimit="10"/>
<path id="Vector_376" d="M1920 1512.5H0" stroke="#D1D1D1" stroke-width="0.75" stroke-miterlimit="10"/>
<path id="Vector_377" d="M1920 1521.3H0" stroke="#D1D1D1" stroke-width="0.75" stroke-miterlimit="10"/>
<path id="Vector_378" d="M1920 1530.1H0" stroke="#D1D1D1" stroke-width="0.75" stroke-miterlimit="10"/>
<path id="Vector_379" d="M1920 1538.9H0" stroke="#D1D1D1" stroke-width="0.75" stroke-miterlimit="10"/>
<path id="Vector_380" d="M1920 1547.6H0" stroke="#D1D1D1" stroke-width="0.75" stroke-miterlimit="10"/>
<path id="Vector_381" d="M1920 1556.4H0" stroke="#D1D1D1" stroke-width="0.75" stroke-miterlimit="10"/>
<path id="Vector_382" d="M1920 1565.2H0" stroke="#D1D1D1" stroke-width="0.75" stroke-miterlimit="10"/>
<path id="Vector_383" d="M1920 1574H0" stroke="#D1D1D1" stroke-width="0.75" stroke-miterlimit="10"/>
<path id="Vector_384" d="M1920 1582.8H0" stroke="#D1D1D1" stroke-width="0.75" stroke-miterlimit="10"/>
<path id="Vector_385" d="M1920 1591.6H0" stroke="#D1D1D1" stroke-width="0.75" stroke-miterlimit="10"/>
<path id="Vector_386" d="M1920 1601H0" stroke="#D1D1D1" stroke-width="0.75" stroke-miterlimit="10"/>
<path id="Vector_387" d="M1920 1610.5H0" stroke="#D1D1D1" stroke-width="0.75" stroke-miterlimit="10"/>
<path id="Vector_388" d="M1920 1619.9H0" stroke="#D1D1D1" stroke-width="0.75" stroke-miterlimit="10"/>
<path id="Vector_389" d="M1920 1629.4H0" stroke="#D1D1D1" stroke-width="0.75" stroke-miterlimit="10"/>
<path id="Vector_390" d="M1920 1638.8H0" stroke="#D1D1D1" stroke-width="0.75" stroke-miterlimit="10"/>
<path id="Vector_391" d="M1920 1648.2H0" stroke="#D1D1D1" stroke-width="0.75" stroke-miterlimit="10"/>
<path id="Vector_392" d="M1920 1657.7H0" stroke="#D1D1D1" stroke-width="0.75" stroke-miterlimit="10"/>
<path id="Vector_393" d="M1920 1667.1H0" stroke="#D1D1D1" stroke-width="0.75" stroke-miterlimit="10"/>
<path id="Vector_394" d="M1920 1676.6H0" stroke="#D1D1D1" stroke-width="0.75" stroke-miterlimit="10"/>
<path id="Vector_395" d="M1920 1686H0" stroke="#D1D1D1" stroke-width="0.75" stroke-miterlimit="10"/>
<path id="Vector_396" d="M1920 1695.5H0" stroke="#D1D1D1" stroke-width="0.75" stroke-miterlimit="10"/>
<path id="Vector_397" d="M1920 1704.9H0" stroke="#D1D1D1" stroke-width="0.75" stroke-miterlimit="10"/>
<path id="Vector_398" d="M1920 1714.4H0" stroke="#D1D1D1" stroke-width="0.75" stroke-miterlimit="10"/>
<path id="Vector_399" d="M1920 1723.8H0" stroke="#D1D1D1" stroke-width="0.75" stroke-miterlimit="10"/>
<path id="Vector_400" d="M1920 1733.3H0" stroke="#D1D1D1" stroke-width="0.75" stroke-miterlimit="10"/>
<path id="Vector_401" d="M1920 1742.7H0" stroke="#D1D1D1" stroke-width="0.75" stroke-miterlimit="10"/>
<path id="Vector_402" d="M1920 1752.1H0" stroke="#D1D1D1" stroke-width="0.75" stroke-miterlimit="10"/>
<path id="Vector_403" d="M1920 1761.6H0" stroke="#D1D1D1" stroke-width="0.75" stroke-miterlimit="10"/>
<path id="Vector_404" d="M1920 1771H0" stroke="#D1D1D1" stroke-width="0.75" stroke-miterlimit="10"/>
<path id="Vector_405" d="M1920 1780.5H0" stroke="#D1D1D1" stroke-width="0.75" stroke-miterlimit="10"/>
<path id="Vector_406" d="M1920 1789.9H0" stroke="#D1D1D1" stroke-width="0.75" stroke-miterlimit="10"/>
<path id="Vector_407" d="M1920 1799.4H0" stroke="#D1D1D1" stroke-width="0.75" stroke-miterlimit="10"/>
<path id="Vector_408" d="M1920 1808.8H0" stroke="#D1D1D1" stroke-width="0.75" stroke-miterlimit="10"/>
<path id="Vector_409" d="M1920 1818.3H0" stroke="#D1D1D1" stroke-width="0.75" stroke-miterlimit="10"/>
<path id="Vector_410" d="M1920 1827.7H0" stroke="#D1D1D1" stroke-width="0.75" stroke-miterlimit="10"/>
<path id="Vector_411" d="M1920 1837.2H0" stroke="#D1D1D1" stroke-width="0.75" stroke-miterlimit="10"/>
<path id="Vector_412" d="M1920 1846.6H0" stroke="#D1D1D1" stroke-width="0.75" stroke-miterlimit="10"/>
<path id="Vector_413" d="M1920 1856.1H0" stroke="#D1D1D1" stroke-width="0.75" stroke-miterlimit="10"/>
<path id="Vector_414" d="M1920 1865.5H0" stroke="#D1D1D1" stroke-width="0.75" stroke-miterlimit="10"/>
<path id="Vector_415" d="M1920 1874.9H0" stroke="#D1D1D1" stroke-width="0.75" stroke-miterlimit="10"/>
<path id="Vector_416" d="M1920 1884.4H0" stroke="#D1D1D1" stroke-width="0.75" stroke-miterlimit="10"/>
<path id="Vector_417" d="M1920 1893.8H0" stroke="#D1D1D1" stroke-width="0.75" stroke-miterlimit="10"/>
<path id="Vector_418" d="M1920 1903.3H0" stroke="#D1D1D1" stroke-width="0.75" stroke-miterlimit="10"/>
<path id="Vector_419" d="M1920 1912.7H0" stroke="#D1D1D1" stroke-width="0.75" stroke-miterlimit="10"/>
<path id="Vector_420" d="M1920 1922.2H0" stroke="#D1D1D1" stroke-width="0.75" stroke-miterlimit="10"/>
<path id="Vector_421" d="M1920 1931.6H0" stroke="#D1D1D1" stroke-width="0.75" stroke-miterlimit="10"/>
<path id="Vector_422" d="M1920 1941.1H0" stroke="#D1D1D1" stroke-width="0.75" stroke-miterlimit="10"/>
<path id="Vector_423" d="M1920 1950.5H0" stroke="#D1D1D1" stroke-width="0.75" stroke-miterlimit="10"/>
<path id="Vector_424" d="M1920 1960H0" stroke="#D1D1D1" stroke-width="0.75" stroke-miterlimit="10"/>
<path id="Vector_425" d="M1920 1969.4H0" stroke="#D1D1D1" stroke-width="0.75" stroke-miterlimit="10"/>
<path id="Vector_426" d="M1920 1978.8H0" stroke="#D1D1D1" stroke-width="0.75" stroke-miterlimit="10"/>
<path id="Vector_427" d="M1920 1988.3H0" stroke="#D1D1D1" stroke-width="0.75" stroke-miterlimit="10"/>
<path id="Vector_428" d="M1920 1997.7H0" stroke="#D1D1D1" stroke-width="0.75" stroke-miterlimit="10"/>
<path id="Vector_429" d="M1920 2007.2H0" stroke="#D1D1D1" stroke-width="0.75" stroke-miterlimit="10"/>
<path id="Vector_430" d="M1920 2016.6H0" stroke="#D1D1D1" stroke-width="0.75" stroke-miterlimit="10"/>
<path id="Vector_431" d="M1920 2026.1H0" stroke="#D1D1D1" stroke-width="0.75" stroke-miterlimit="10"/>
<path id="Vector_432" d="M1920 2034.9H0" stroke="#D1D1D1" stroke-width="0.75" stroke-miterlimit="10"/>
<path id="Vector_433" d="M1920 2043.8H0" stroke="#D1D1D1" stroke-width="0.75" stroke-miterlimit="10"/>
<path id="Vector_434" d="M1920 2051.9H0" stroke="#D1D1D1" stroke-width="0.75" stroke-miterlimit="10"/>
<path id="Vector_435" d="M1920 2060.7H0" stroke="#D1D1D1" stroke-width="0.75" stroke-miterlimit="10"/>
<path id="Vector_436" d="M1920 2069.5H0" stroke="#D1D1D1" stroke-width="0.75" stroke-miterlimit="10"/>
<path id="Vector_437" d="M1920 2078.3H0" stroke="#D1D1D1" stroke-width="0.75" stroke-miterlimit="10"/>
<path id="Vector_438" d="M1920 2087.1H0" stroke="#D1D1D1" stroke-width="0.75" stroke-miterlimit="10"/>
<path id="Vector_439" d="M1920 2095.8H0" stroke="#D1D1D1" stroke-width="0.75" stroke-miterlimit="10"/>
<path id="Vector_440" d="M1920 2104.6H0" stroke="#D1D1D1" stroke-width="0.75" stroke-miterlimit="10"/>
<path id="Vector_441" d="M1920 2113.4H0" stroke="#D1D1D1" stroke-width="0.75" stroke-miterlimit="10"/>
<path id="Vector_442" d="M1920 2122.2H0" stroke="#D1D1D1" stroke-width="0.75" stroke-miterlimit="10"/>
<path id="Vector_443" d="M1920 2131H0" stroke="#D1D1D1" stroke-width="0.75" stroke-miterlimit="10"/>
<path id="Vector_444" d="M1920 2139.8H0" stroke="#D1D1D1" stroke-width="0.75" stroke-miterlimit="10"/>
<path id="Vector_445" d="M1920 2148.6H0" stroke="#D1D1D1" stroke-width="0.75" stroke-miterlimit="10"/>
<path id="Vector_446" d="M1920 2157.3H0" stroke="#D1D1D1" stroke-width="0.75" stroke-miterlimit="10"/>
<path id="Vector_447" d="M1920 2166.1H0" stroke="#D1D1D1" stroke-width="0.75" stroke-miterlimit="10"/>
<path id="Vector_448" d="M1920 2174.9H0" stroke="#D1D1D1" stroke-width="0.75" stroke-miterlimit="10"/>
<path id="Vector_449" d="M1920 2183.7H0" stroke="#D1D1D1" stroke-width="0.75" stroke-miterlimit="10"/>
<path id="Vector_450" d="M1920 2192.5H0" stroke="#D1D1D1" stroke-width="0.75" stroke-miterlimit="10"/>
<path id="Vector_451" d="M1920 2201.3H0" stroke="#D1D1D1" stroke-width="0.75" stroke-miterlimit="10"/>
<path id="Vector_452" d="M1920 2210.1H0" stroke="#D1D1D1" stroke-width="0.75" stroke-miterlimit="10"/>
<path id="Vector_453" d="M1920 2218.9H0" stroke="#D1D1D1" stroke-width="0.75" stroke-miterlimit="10"/>
<path id="Vector_454" d="M1920 2227.6H0" stroke="#D1D1D1" stroke-width="0.75" stroke-miterlimit="10"/>
<path id="Vector_455" d="M1920 2236.4H0" stroke="#D1D1D1" stroke-width="0.75" stroke-miterlimit="10"/>
</g>
</g>
</svg>
